# Blender v2.76 (sub 0) OBJ File: ''
# www.blender.org
mtllib planes.mtl
o wall
v -1.011091 1.998069 1.000000
v -1.012553 -0.001931 1.000000
v -1.011091 1.998069 -1.000000
v -1.012553 -0.001931 -1.000000
vt 0.000000 1.000000
vt 0.000000 0.000000
vt 1.000000 0.000000
vt 1.000000 1.000000
vn 1.000000 -0.000700 0.000000
usemtl Material.002
s off
f 1/1/1 2/2/1 4/3/1 3/4/1
o floor
v -1.012321 0.001534 1.025888
v 0.987679 0.001534 1.025888
v -1.012321 0.001534 -0.974112
v 0.987679 0.001534 -0.974112
vt 0.000000 1.000000
vt 0.000000 0.000000
vt 1.000000 0.000000
vt 1.000000 1.000000
vn 0.000000 1.000000 0.000000
usemtl Material.001
s off
f 5/5/2 6/6/2 8/7/2 7/8/2
